<svg xmlns="http://www.w3.org/2000/svg" width="22" height="30"><defs><linearGradient id="grd1" gradientUnits="userSpaceOnUse" x1=".5" y1="-4.29" x2="17.508" y2="31.618"><stop offset="0" stop-color="#bd11fa"/><stop offset="1" stop-color="#46c2ff"/></linearGradient><clipPath clipPathUnits="userSpaceOnUse" id="cp1"><path d="M-741-2405h1920v8789H-741z"/></clipPath></defs><style/><g id="Homepage" clip-path="url(#cp1)"><g id="Group 2458"><path id="Icon material-location-on" fill-rule="evenodd" d="M21.5 10.5C21.5 18.37 11 30 11 30S.5 18.37.5 10.5C.5 4.69 5.19 0 11 0c5.8 0 10.5 4.69 10.5 10.5zm-6.75 0c0-2.07-1.68-3.75-3.75-3.75-2.07 0-3.75 1.68-3.75 3.75 0 2.07 1.68 3.75 3.75 3.75 2.07 0 3.75-1.68 3.75-3.75z" fill="url(#grd1)"/></g></g></svg>