<svg xmlns="http://www.w3.org/2000/svg" width="858" height="864"><defs><linearGradient id="grd1" gradientUnits="userSpaceOnUse" x1="125.379" y1="136.298" x2="728.027" y2="738.947"><stop offset="0" stop-color="#bd11fa"/><stop offset="1" stop-color="#46c2ff"/></linearGradient><linearGradient id="grd2" gradientUnits="userSpaceOnUse" x1="129.621" y1="124.984" x2="732.27" y2="727.633"><stop offset="0" stop-color="#bd11fa"/><stop offset="1" stop-color="#46c2ff"/></linearGradient><clipPath clipPathUnits="userSpaceOnUse" id="cp1"><path d="M-1001-188H919v8789h-1920z"/></clipPath><clipPath clipPathUnits="userSpaceOnUse" id="cp2"><path d="M543.77 19.15L485.25 90 165.88 334.97l-49.63 157.24-5.61 108.99-74.38 32.75-117.39-117.38L66.07 72.26l357.32-222.05 349.88-48.23L960.15 68.71l88.77 316.89-248.59 389.79L431 906.01l-13.26-40.69-2.57-74.18 217.07-171.31 141.9-240.94-91.54-133.96-18.92-68.98 21.07-90.08 81.1-49.33L681.8-73.34 574.5-55.35l-30.73 74.5z"/></clipPath></defs><style/><g id="Homepage" clip-path="url(#cp1)"><g id="Group 2"><g id="Group 1"><g id="Mask Group 1" clip-path="url(#cp2)"><path id="Subtraction 1" fill-rule="evenodd" d="M661.18 793.55a424.357 424.357 0 01-74.12 39.01 426.85 426.85 0 01-78.97 23.4c-26.73 5.17-54.12 7.8-81.39 7.8-27.27 0-54.65-2.63-81.39-7.8-26.99-5.23-53.56-13.1-78.96-23.4a424.001 424.001 0 01-74.12-39.01c-23.92-15.79-46.41-34.16-66.85-54.6-20.45-20.45-38.82-42.94-54.61-66.85a424.666 424.666 0 01-39-74.12 426.084 426.084 0 01-23.4-78.97c-5.18-26.73-7.8-54.12-7.8-81.39 0-27.27 2.62-54.65 7.8-81.39 5.22-26.99 13.1-53.56 23.4-78.96a423.954 423.954 0 0139-74.12c15.79-23.92 34.16-46.41 54.61-66.85 20.44-20.45 42.93-38.82 66.85-54.61a423.28 423.28 0 0174.12-39c25.4-10.3 51.97-18.18 78.96-23.4 26.74-5.18 54.12-7.81 81.39-7.8a428.05 428.05 0 0181.39 7.8c26.99 5.22 53.56 13.1 78.97 23.4a423.99 423.99 0 0174.12 39c23.91 15.79 46.4 34.16 66.85 54.61 20.44 20.44 38.81 42.93 54.6 66.85a424.001 424.001 0 0139.01 74.12c10.3 25.4 18.17 51.97 23.4 78.96 5.18 26.74 7.8 54.12 7.8 81.39 0 27.27-2.62 54.66-7.8 81.39a426.85 426.85 0 01-23.4 78.97 424.713 424.713 0 01-39.01 74.12c-15.79 23.91-34.16 46.4-54.6 66.85-20.45 20.44-42.94 38.81-66.85 54.6zM126.47 239.84a357.13 357.13 0 00-32.9 62.52 358.849 358.849 0 00-19.74 66.61 362.537 362.537 0 00-6.59 68.65c.01 23.01 2.22 46.1 6.59 68.66a359.3 359.3 0 0019.74 66.61 357.84 357.84 0 0032.9 62.52c13.32 20.17 28.81 39.14 46.06 56.39 17.24 17.24 36.22 32.74 56.39 46.06a357.484 357.484 0 0062.52 32.9 359.612 359.612 0 0066.61 19.74 361.71 361.71 0 0068.65 6.58c23.01 0 46.11-2.21 68.66-6.58a359.84 359.84 0 0066.61-19.74 357.84 357.84 0 0062.52-32.9c20.17-13.32 39.14-28.82 56.39-46.06 17.24-17.25 32.74-36.22 46.06-56.39a357.84 357.84 0 0032.9-62.52 360.067 360.067 0 0019.74-66.61c4.37-22.56 6.58-45.65 6.58-68.66 0-23-2.21-46.1-6.58-68.65a359.612 359.612 0 00-19.74-66.61 357.13 357.13 0 00-32.9-62.52c-13.32-20.18-28.82-39.15-46.06-56.39-17.25-17.25-36.22-32.75-56.39-46.06a357.887 357.887 0 00-62.52-32.91 359.612 359.612 0 00-66.61-19.74 362.554 362.554 0 00-68.66-6.58c-23 0-46.1 2.22-68.65 6.58a359.612 359.612 0 00-66.61 19.74 357.531 357.531 0 00-62.52 32.91c-20.17 13.31-39.15 28.81-56.39 46.06-17.25 17.24-32.74 36.21-46.06 56.39z" fill="url(#grd1)"/></g><path id="Subtraction 2" fill-rule="evenodd" d="M665.42 782.24a423.28 423.28 0 01-74.12 39 425.985 425.985 0 01-78.96 23.4 428.952 428.952 0 01-81.39 7.81c-27.28 0-54.66-2.63-81.39-7.81-27-5.22-53.56-13.1-78.97-23.4a423.634 423.634 0 01-74.12-39c-23.91-15.79-46.4-34.16-66.85-54.61-20.44-20.44-38.82-42.93-54.6-66.85a423.327 423.327 0 01-39.01-74.12c-10.3-25.4-18.17-51.97-23.4-78.96-5.18-26.74-7.8-54.12-7.8-81.39 0-27.27 2.62-54.66 7.8-81.39a426.85 426.85 0 0123.4-78.97 424.713 424.713 0 0139.01-74.12c15.79-23.91 34.16-46.4 54.6-66.85 20.45-20.44 42.94-38.81 66.85-54.6a424.357 424.357 0 0174.12-39.01 426.623 426.623 0 0178.97-23.4c26.73-5.17 54.11-7.8 81.39-7.8 27.27 0 54.65 2.63 81.39 7.8a426.75 426.75 0 0178.96 23.4 424.357 424.357 0 0174.12 39.01c23.91 15.79 46.41 34.16 66.85 54.6 20.44 20.45 38.82 42.94 54.61 66.85a424.666 424.666 0 0139 74.12 426.084 426.084 0 0123.4 78.97c5.18 26.73 7.8 54.12 7.8 81.39 0 27.27-2.62 54.65-7.8 81.39a425.759 425.759 0 01-23.4 78.96 423.954 423.954 0 01-39 74.12c-15.79 23.92-34.17 46.41-54.61 66.85-20.44 20.45-42.94 38.82-66.85 54.61zM130.71 228.52a357.84 357.84 0 00-32.9 62.52 360.067 360.067 0 00-19.74 66.61 361.814 361.814 0 00-6.58 68.66c0 23 2.21 46.1 6.58 68.65a359.612 359.612 0 0019.74 66.61 357.484 357.484 0 0032.9 62.52c13.32 20.18 28.81 39.15 46.06 56.39 17.25 17.25 36.22 32.75 56.39 46.06a357.484 357.484 0 0062.52 32.9c21.43 8.7 43.84 15.34 66.61 19.75 22.55 4.36 45.65 6.58 68.66 6.58 23 0 46.1-2.22 68.65-6.58a358.877 358.877 0 0066.61-19.75 357.484 357.484 0 0062.52-32.9c20.17-13.31 39.14-28.81 56.39-46.06a361.758 361.758 0 0046.06-56.39 357.484 357.484 0 0032.9-62.52 358.849 358.849 0 0019.74-66.61 361.71 361.71 0 006.58-68.65c0-23.01-2.21-46.1-6.58-68.66a359.3 359.3 0 00-19.74-66.61 357.84 357.84 0 00-32.9-62.52c-13.32-20.17-28.81-39.14-46.06-56.39-17.24-17.24-36.22-32.74-56.39-46.06a357.484 357.484 0 00-62.52-32.9 359.612 359.612 0 00-66.61-19.74 361.71 361.71 0 00-68.65-6.58c-23.01 0-46.11 2.21-68.66 6.58a359.612 359.612 0 00-66.61 19.74 357.484 357.484 0 00-62.52 32.9c-20.17 13.32-39.14 28.82-56.39 46.06-17.24 17.25-32.74 36.22-46.06 56.39z" opacity=".412" fill="url(#grd2)"/></g></g></g></svg>