<svg xmlns="http://www.w3.org/2000/svg" width="21" height="21"><defs><clipPath clipPathUnits="userSpaceOnUse" id="cp1"><path d="M-980-8363H940V426H-980z"/></clipPath></defs><style/><g id="Homepage" clip-path="url(#cp1)"><g id="Group 2497"><g id="Group 2466"><path id="Icon awesome-instagram" fill-rule="evenodd" d="M20.19 6.52c.09 1.63.09 6.49 0 8.11-.08 1.58-.44 2.98-1.59 4.13-1.15 1.15-2.55 1.51-4.12 1.59-1.63.09-6.49.09-8.12 0-1.57-.08-2.96-.44-4.12-1.59C1.09 17.61.73 16.21.65 14.63c-.09-1.62-.09-6.49 0-8.11.08-1.58.44-2.97 1.59-4.12C3.4 1.25 4.79.89 6.36.81c1.63-.09 6.49-.09 8.12 0 1.57.08 2.97.44 4.12 1.59 1.16 1.15 1.51 2.55 1.59 4.12zm-1.7 4.06c0-1.43.12-4.51-.4-5.8a3.337 3.337 0 00-1.87-1.87c-1.29-.51-4.37-.39-5.8-.39-1.43 0-4.5-.12-5.8.39-.86.35-1.52 1.01-1.87 1.87-.5 1.29-.39 4.37-.39 5.8 0 1.43-.12 4.5.39 5.8.35.86 1.01 1.52 1.87 1.87 1.29.51 4.37.39 5.8.39 1.43 0 4.51.12 5.8-.39.87-.35 1.53-1.01 1.87-1.87.52-1.29.4-4.37.4-5.8zm-1.64-5.25c0 .65-.53 1.17-1.18 1.17-.65 0-1.17-.52-1.17-1.17 0-.65.52-1.18 1.17-1.18.65 0 1.18.53 1.18 1.18zm-1.38 5.25a5.04 5.04 0 01-5.05 5.04c-2.79 0-5.04-2.25-5.04-5.04s2.25-5.04 5.04-5.04a5.04 5.04 0 015.05 5.04zm-1.77 0c0-1.81-1.47-3.28-3.28-3.28-1.81 0-3.28 1.47-3.28 3.28 0 1.81 1.48 3.28 3.28 3.28 1.81 0 3.28-1.47 3.28-3.28z" fill="#46c2ff"/></g></g></g></svg>