<svg xmlns="http://www.w3.org/2000/svg" width="23" height="19"><defs><clipPath clipPathUnits="userSpaceOnUse" id="cp1"><path d="M-953-8397H967V392H-953z"/></clipPath></defs><style/><g id="Homepage" clip-path="url(#cp1)"><g id="Group 2497"><g id="Group 2466"><g id="Group 225"><g id="twitter-circular-button"><g id="Group 224"><path id="Path 381" d="M19.88 5.49c0-.2-.01-.41-.01-.61.87-.65 1.62-1.46 2.22-2.39-.8.36-1.66.6-2.56.7A4.53 4.53 0 0021.49.63c-.86.53-1.82.9-2.83 1.09C17.85.8 16.69.21 15.41.19c-2.46-.04-4.46 2.04-4.46 4.64 0 .37.04.73.12 1.08C7.36 5.67 4.08 3.74 1.88.84c-.38.69-.6 1.51-.6 2.38 0 1.65.79 3.12 1.98 3.98-.73-.03-1.42-.25-2.02-.62v.06c0 2.31 1.54 4.24 3.58 4.69a4.183 4.183 0 01-2.01.07c.56 1.89 2.21 3.27 4.16 3.32-1.53 1.26-3.45 2.02-5.53 2.01-.36 0-.72-.02-1.07-.06 1.98 1.35 4.32 2.14 6.83 2.14 8.2 0 12.68-7.13 12.68-13.32z" fill="#46c2ff"/></g></g></g></g></g></g></svg>