<svg xmlns="http://www.w3.org/2000/svg" width="398" height="362"><defs><linearGradient id="grd1" gradientUnits="userSpaceOnUse" x1="52.86" y1="137.187" x2="191.174" y2="137.187"><stop offset="0" stop-color="#d500f9"/><stop offset=".99" stop-color="#2979ff"/></linearGradient><linearGradient id="grd2" gradientUnits="userSpaceOnUse" x1="175.748" y1="107.508" x2="344.992" y2="107.508"><stop offset="0" stop-color="#d500f9"/><stop offset=".99" stop-color="#2979ff"/></linearGradient><linearGradient id="grd3" gradientUnits="userSpaceOnUse" x1="0" y1="281.832" x2="228.042" y2="281.832"><stop offset="0" stop-color="#d500f9"/><stop offset=".99" stop-color="#2979ff"/></linearGradient><linearGradient id="grd4" gradientUnits="userSpaceOnUse" x1="212.617" y1="240.788" x2="397.852" y2="240.788"><stop offset="0" stop-color="#d500f9"/><stop offset=".99" stop-color="#2979ff"/></linearGradient><linearGradient id="grd5" gradientUnits="userSpaceOnUse" x1="0" y1="161.251" x2="382.426" y2="161.251"><stop offset="0" stop-color="#ea80fc"/><stop offset=".99" stop-color="#40c4ff"/></linearGradient><clipPath clipPathUnits="userSpaceOnUse" id="cp1"><path d="M-1462-7188H458v8789h-1920z"/></clipPath></defs><style/><g id="Homepage" clip-path="url(#cp1)"><g id="Group 2439"><g id="Group 2438"><g id="Group 2433"><path id="Path 1599" d="M175.75 44.58l15.42 38.86L68.29 229.8l-15.43-38.87L175.75 44.58z" fill="url(#grd1)"/></g><g id="Group 2434"><path id="Path 1600" d="M329.57 131.57l15.42 38.87-153.82-87-15.42-38.86 153.82 86.99z" fill="url(#grd2)"/></g><g id="Group 2435"><path id="Path 1601" d="M212.62 322.5l15.42 38.87L15.43 241.16 0 202.3l212.62 120.2z" fill="url(#grd3)"/></g><g id="Group 2436"><path id="Path 1602" d="M382.43 120.21l15.42 38.87-169.81 202.29-15.42-38.87 169.81-202.29z" fill="url(#grd4)"/></g><g id="Group 2437"><path id="Path 1603" fill-rule="evenodd" d="M169.81 0l212.62 120.2-169.81 202.3L0 202.29 169.81 0zm36.87 277.93l122.89-146.36-153.82-86.99L52.86 190.93l153.82 87z" fill="url(#grd5)"/></g></g></g></g></svg>