<svg xmlns="http://www.w3.org/2000/svg" width="30" height="38"><defs><clipPath clipPathUnits="userSpaceOnUse" id="cp1"><path d="M-1409-3963H511v8789h-1920z"/></clipPath></defs><style>.shp0{fill:#fff}</style><g id="Homepage" clip-path="url(#cp1)"><g id="Group 2465"><path id="Path 1638" class="shp0" d="M24.8 20.13c-.05-4.61 3.77-6.85 3.95-6.95-2.17-3.15-5.52-3.58-6.69-3.62-2.82-.29-5.54 1.69-6.98 1.69-1.46 0-3.67-1.66-6.04-1.61-3.07.05-5.93 1.82-7.5 4.57C-1.7 19.82.72 28.07 3.82 32.6c1.55 2.22 3.37 4.7 5.74 4.62 2.33-.1 3.2-1.48 6-1.48 2.78 0 3.6 1.48 6.02 1.42 2.49-.04 4.07-2.23 5.56-4.47 1.8-2.55 2.52-5.06 2.55-5.18-.06-.02-4.85-1.85-4.89-7.38z"/><path id="Path 1639" class="shp0" d="M20.22 6.58c1.25-1.56 2.1-3.69 1.87-5.85-1.81.08-4.08 1.25-5.38 2.78-1.15 1.35-2.18 3.56-1.92 5.63 2.04.15 4.12-1.02 5.43-2.56z"/></g></g></svg>