<svg xmlns="http://www.w3.org/2000/svg" width="34" height="36"><defs><linearGradient id="grd1" gradientUnits="userSpaceOnUse" x1="10.194" y1="-1.224" x2="18.52" y2="32.97"><stop offset="0" stop-color="#006884"/><stop offset="1" stop-color="#8ad1d0"/></linearGradient><linearGradient id="grd2" gradientUnits="userSpaceOnUse" x1=".041" y1="3.64" x2="22.73" y2="15.906"><stop offset="0" stop-color="#24bbb6"/><stop offset="1" stop-color="#dbe692"/></linearGradient><linearGradient id="grd3" gradientUnits="userSpaceOnUse" x1="26.148" y1="24.129" x2="26.148" y2="12.308"><stop offset="0" stop-color="#fcc072"/><stop offset="1" stop-color="#f58a5b"/></linearGradient><linearGradient id="grd4" gradientUnits="userSpaceOnUse" x1="4.434" y1="38.48" x2="22.358" y2="20.238"><stop offset="0" stop-color="#712b8f"/><stop offset="1" stop-color="#ea1d27"/></linearGradient><clipPath clipPathUnits="userSpaceOnUse" id="cp1"><path d="M-1634-3965H286v8789h-1920z"/></clipPath></defs><style/><g id="Homepage" clip-path="url(#cp1)"><g id="Group 2464"><path id="Path 1607" d="M.54 18.15V2.5c0-.85.74-1.66 1.54-1.66.71 0 1.05.22 1.41.4l28.7 15.69c.62.34.93.78.92 1.22.01.44-.3.89-.92 1.22L3.49 35.06c-.36.19-.7.4-1.41.4-.8 0-1.54-.81-1.54-1.65V18.15z" fill="url(#grd1)"/><path id="Path 1608" d="M19.18 18.25L1.81.88c.08-.03.17-.04.27-.04.71 0 1.05.22 1.41.4L24.64 12.8l-5.46 5.45z" fill="url(#grd2)"/><path id="Path 1609" d="M24.5 23.58l-5.32-5.33 5.46-5.45 7.55 4.13c.62.34.93.78.92 1.22.01.44-.3.89-.92 1.22l-7.69 4.21z" fill="url(#grd3)"/><path id="Path 1610" d="M1.98 35.45l.02-.01 17.18-17.19 5.32 5.33L3.49 35.06c-.36.19-.7.4-1.41.4-.04 0-.07 0-.1-.01z" fill="url(#grd4)"/></g></g></svg>