<svg xmlns="http://www.w3.org/2000/svg" width="115" height="111"><defs><linearGradient id="grd1" gradientUnits="userSpaceOnUse" x1="78.817" y1="28.302" x2="10.902" y2="90.094"><stop offset="0" stop-color="#d500f9"/><stop offset=".99" stop-color="#2979ff"/></linearGradient><linearGradient id="grd2" gradientUnits="userSpaceOnUse" x1="103.436" y1="28.61" x2="27.428" y2="118.912"><stop offset="0" stop-color="#d500f9"/><stop offset=".99" stop-color="#2979ff"/></linearGradient><linearGradient id="grd3" gradientUnits="userSpaceOnUse" x1="81.052" y1="17.862" x2="15.904" y2="76.973"><stop offset="0" stop-color="#ea80fc"/><stop offset=".99" stop-color="#40c4ff"/></linearGradient><clipPath clipPathUnits="userSpaceOnUse" id="cp1"><path d="M-186-8287h1920V502H-186z"/></clipPath></defs><style/><g id="Homepage" clip-path="url(#cp1)"><g id="Group 2503"><g id="Group 2460"><g id="Group 2369"><g id="Group 2368"><path id="Path 1549" d="M28.46 45.46c-.13.21-.26.42-.38.63-.15.26-.28.52-.42.78-.11.2-.23.41-.34.62-.14.27-.26.54-.39.81-.1.2-.2.41-.3.61-.13.29-.24.57-.37.86-.08.19-.17.39-.25.59l-.33.87c-.07.2-.15.4-.22.59-.11.32-.2.65-.3.97-.06.17-.12.34-.17.52-.14.49-.28.99-.4 1.5-1.62 6.86-.53 13.09 2.63 17.93l7.5 11.52c-3.15-4.85-4.25-11.08-2.62-17.94.12-.5.25-1 .39-1.5.05-.18.12-.35.17-.52.1-.32.2-.64.31-.96.07-.2.15-.4.22-.6.11-.29.21-.58.33-.87.08-.2.17-.39.25-.59.12-.29.24-.57.37-.85.09-.21.19-.41.29-.62.13-.27.26-.54.39-.8.11-.22.23-.42.34-.63.14-.26.28-.52.42-.77.12-.22.25-.43.38-.64.15-.24.29-.49.44-.73.14-.22.28-.43.42-.64.15-.23.3-.47.46-.71.35-.5.71-1 1.09-1.49.11-.15.22-.29.34-.44.27-.35.54-.69.83-1.04.16-.18.31-.37.47-.56.19-.22.39-.44.58-.65.18-.2.36-.4.54-.59.2-.22.4-.43.61-.64.19-.2.39-.4.59-.6a37.502 37.502 0 011.16-1.11c.17-.16.34-.32.52-.47.14-.13.29-.26.43-.39.64-.55 1.29-1.1 1.97-1.62.04-.03.08-.07.13-.1.61-.48 1.25-.94 1.89-1.39.13-.08.25-.17.37-.26.66-.44 1.32-.87 1.99-1.28.14-.08.28-.16.41-.24.69-.41 1.38-.8 2.09-1.18.03-.01.05-.03.08-.04.75-.39 1.52-.76 2.29-1.11.18-.08.35-.17.53-.24.21-.09.42-.18.62-.27.29-.12.58-.24.87-.35.21-.09.42-.17.63-.25.27-.1.55-.2.82-.3.27-.09.54-.19.81-.28.26-.08.53-.17.79-.25.27-.09.55-.17.82-.25.24-.07.48-.13.72-.2.42-.11.86-.22 1.29-.32.19-.05.38-.1.58-.14.61-.13 1.23-.26 1.84-.36l.02-.01c.73-.12 1.46-.21 2.19-.29l.55-.06c.73-.07 1.46-.13 2.2-.15.58-.02 1.16-.03 1.73-.02.19.01.36.02.55.02.38.01.77.03 1.15.05.21.02.41.04.62.05.35.03.7.07 1.05.11.2.03.4.05.6.08.36.05.72.11 1.07.17l.52.09c.46.09.92.19 1.37.31l.16.03c.5.13.99.27 1.47.42.15.05.29.1.44.15.31.11.62.22.93.34.34.13.67.27 1 .41.19.08.38.15.57.24.39.18.77.37 1.15.57.11.06.23.11.34.18.12.06.23.13.34.2.31.17.62.35.92.54.16.1.3.21.45.31.26.17.51.34.76.52l.36.27c.25.19.49.39.73.59.13.1.25.2.37.31.26.22.51.46.76.69.07.07.14.14.22.21.31.31.61.63.9.96.06.07.12.14.18.22.23.26.46.53.67.81.08.1.15.2.23.29.25.35.51.7.74 1.06l-7.5-11.51c-.19-.28-.38-.56-.58-.84-.05-.07-.11-.14-.17-.22-.07-.1-.15-.2-.22-.29-.22-.28-.44-.55-.67-.82l-.18-.21c-.03-.03-.05-.06-.08-.09-.26-.3-.54-.59-.83-.87-.07-.07-.15-.14-.22-.21-.17-.16-.33-.33-.5-.48-.09-.08-.17-.14-.25-.22-.12-.1-.25-.2-.37-.31-.24-.2-.48-.39-.73-.58-.12-.09-.24-.19-.36-.28-.06-.04-.11-.08-.17-.12-.19-.14-.39-.27-.59-.4l-.45-.3c-.3-.19-.61-.37-.93-.55-.11-.06-.22-.14-.33-.2-.02-.01-.03-.01-.04-.02-.1-.06-.21-.1-.31-.15-.38-.2-.75-.4-1.14-.57-.19-.09-.38-.17-.57-.25-.33-.14-.66-.28-1-.41-.07-.03-.14-.06-.21-.08-.24-.09-.48-.17-.73-.25-.14-.05-.29-.1-.44-.15-.48-.15-.97-.29-1.47-.42-.05-.01-.1-.03-.16-.04-.44-.11-.9-.21-1.36-.3-.17-.04-.35-.06-.52-.09-.35-.07-.71-.13-1.07-.18-.2-.02-.4-.05-.6-.07-.35-.04-.7-.08-1.06-.11a22.018 22.018 0 00-1.77-.1c-.18-.01-.36-.02-.54-.02-.57-.01-1.15-.01-1.74.01-.73.03-1.46.09-2.2.16-.18.01-.36.03-.54.05-.73.08-1.46.18-2.19.3h-.02c-.62.11-1.23.23-1.84.37-.2.04-.39.09-.59.13-.43.11-.86.21-1.29.33-.1.03-.21.05-.32.08l-.39.12c-.28.08-.55.16-.82.25-.27.08-.53.16-.79.25-.27.09-.54.18-.81.28-.14.05-.28.09-.42.14-.13.05-.26.11-.4.16-.21.08-.43.16-.64.24-.29.12-.57.24-.86.36-.21.08-.42.17-.62.26-.1.04-.19.08-.28.12-.09.04-.17.09-.25.12-.78.35-1.54.72-2.29 1.12h-.02c-.02.02-.04.03-.07.04-.7.37-1.39.77-2.08 1.17-.08.05-.17.1-.25.14-.05.04-.1.07-.16.11-.67.41-1.34.84-1.99 1.28-.04.03-.09.06-.14.09-.08.06-.15.12-.23.17-.64.45-1.28.91-1.9 1.39-.03.02-.07.04-.1.07-.01.01-.02.02-.03.02-.67.53-1.32 1.07-1.96 1.63-.07.06-.14.11-.21.17-.08.07-.15.14-.23.21-.17.16-.34.31-.51.47-.22.21-.44.41-.66.62-.17.17-.34.33-.5.49-.1.1-.21.2-.31.31-.1.1-.19.2-.29.3l-.6.63c-.18.2-.36.39-.54.59-.2.22-.39.44-.58.66-.09.11-.19.22-.29.33-.06.07-.12.15-.18.23-.29.34-.57.69-.84 1.04l-.34.43c-.37.49-.73.99-1.08 1.5-.01.01-.01.02-.02.03-.15.22-.3.45-.45.68-.14.21-.28.42-.41.63-.15.25-.3.49-.44.74z" fill="url(#grd1)"/><path id="Path 1550" d="M41.23 98.6c-.13 0-.25-.01-.38-.02-.7-.04-1.38-.09-2.06-.16-.02-.01-.04-.01-.06-.01-.66-.07-1.32-.16-1.97-.25-.12-.02-.24-.04-.36-.05-.63-.1-1.26-.21-1.88-.34-.12-.02-.24-.05-.37-.07-.63-.14-1.26-.28-1.88-.43l-.09-.03c-.6-.15-1.19-.32-1.78-.5-.1-.03-.21-.07-.31-.1-.58-.18-1.15-.37-1.71-.58-.16-.06-.31-.11-.46-.17-.24-.09-.48-.18-.72-.28l-.51-.21c-.23-.1-.47-.2-.71-.3-.16-.08-.32-.15-.48-.22-.24-.11-.48-.23-.72-.34-.14-.07-.29-.14-.44-.22-.26-.13-.52-.27-.78-.4l-.33-.18c-.57-.31-1.12-.64-1.66-.97l-.24-.15c-.52-.33-1.03-.67-1.53-1.03l-.28-.19c-.44-.32-.87-.65-1.29-.99-.06-.04-.11-.09-.16-.13-.39-.32-.77-.64-1.14-.97-.08-.07-.15-.14-.23-.2-.37-.34-.73-.68-1.08-1.03-.07-.07-.14-.15-.22-.22-.29-.3-.58-.61-.87-.92-.07-.08-.15-.16-.22-.24-.31-.36-.62-.72-.92-1.09-.06-.07-.12-.15-.18-.23-.25-.3-.49-.62-.72-.94-.08-.1-.15-.21-.23-.31-.27-.38-.53-.75-.78-1.14l-.01-.01v.01-.01l7.51 11.52c.25.39.51.77.78 1.15.04.04.07.09.1.13.04.06.09.12.13.18.24.31.48.63.72.94.06.07.12.15.18.22.3.37.61.73.93 1.09.02.03.04.06.07.09l.15.15c.28.31.57.62.87.92.07.08.14.15.22.23.35.35.71.69 1.08 1.02.02.03.05.05.07.08l.15.12c.37.33.75.66 1.15.98.05.04.1.08.15.13.42.33.86.66 1.3.98.04.03.09.07.14.11.04.03.09.06.13.09a40.643 40.643 0 001.77 1.17c.54.34 1.09.66 1.66.97.01.01.03.02.04.02.1.06.2.11.3.16.26.14.51.27.77.41l.45.21c.24.12.47.23.71.34.16.08.33.15.49.22.23.1.47.21.71.31.17.07.33.13.5.2.24.1.48.19.73.29.1.03.2.08.3.11.05.02.1.04.15.05.56.21 1.13.4 1.71.59l.32.09c.58.18 1.17.35 1.78.51.03 0 .05.01.08.02.62.16 1.25.3 1.89.43.12.03.24.05.36.08.62.12 1.25.23 1.89.33.11.02.23.03.35.05.65.1 1.31.18 1.98.25.02.01.03.01.05.01.68.07 1.37.12 2.06.16l.39.03c.67.03 1.35.05 2.04.06.13 0 .26 0 .39.01.72 0 1.44-.01 2.17-.03.77-.03 1.53-.08 2.29-.13l.67-.06c.57-.05 1.13-.11 1.69-.18.23-.02.45-.05.67-.08.76-.09 1.51-.2 2.26-.33h.02c.01 0 .02-.01.03-.01.95-.16 1.89-.35 2.83-.56.3-.06.6-.14.9-.21.66-.15 1.32-.32 1.98-.5.16-.04.33-.08.5-.12.2-.06.4-.13.6-.18.42-.13.84-.25 1.27-.38l1.2-.39c.42-.14.84-.28 1.25-.43.21-.08.43-.14.64-.22.21-.08.41-.16.62-.24.33-.13.65-.25.98-.38l1.32-.54c.32-.14.64-.27.96-.41.15-.07.29-.12.44-.19.33-.15.66-.31 1-.46.24-.12.49-.23.74-.35.61-.29 1.22-.6 1.82-.91.11-.06.22-.11.33-.17.02 0 .03-.01.04-.02a58.453 58.453 0 002.65-1.47c.35-.2.7-.4 1.04-.61.14-.08.28-.17.42-.26.24-.14.48-.29.71-.44.45-.29.9-.57 1.34-.87l.69-.45c.12-.09.25-.17.37-.25.35-.24.71-.5 1.06-.75.17-.13.35-.25.53-.38.62-.45 1.23-.9 1.83-1.37.02-.02.05-.04.07-.05.13-.11.27-.22.4-.33.5-.39.98-.78 1.47-1.19.21-.18.43-.36.64-.55.27-.23.54-.45.8-.68l.35-.32c.27-.24.53-.48.79-.73.35-.31.68-.63 1.02-.95.26-.25.51-.5.77-.75l.48-.48c.15-.15.29-.3.44-.45.31-.33.62-.65.92-.98.28-.3.56-.6.83-.91.3-.33.6-.67.89-1.01.15-.17.3-.33.45-.5.1-.12.19-.24.28-.36.44-.53.87-1.06 1.29-1.6.17-.22.35-.44.51-.66.58-.76 1.14-1.53 1.67-2.31.01-.01.02-.02.03-.04.24-.35.46-.7.69-1.05.21-.32.43-.64.64-.97.23-.37.45-.76.68-1.14.19-.32.39-.64.58-.97.22-.38.42-.77.63-1.15.17-.33.36-.66.53-1 .2-.39.38-.78.57-1.17.17-.34.34-.67.49-1.01.19-.42.36-.84.54-1.26.14-.32.28-.64.41-.96.19-.46.35-.92.52-1.39.11-.29.23-.57.33-.86.18-.52.33-1.04.49-1.56.08-.24.16-.48.23-.72.23-.77.43-1.54.61-2.31 2.51-10.56.82-20.14-4.03-27.58l-7.51-11.52c4.86 7.45 6.55 17.03 4.04 27.59-.18.77-.39 1.54-.61 2.3-.07.26-.16.51-.24.76-.16.51-.31 1.02-.49 1.52-.1.31-.23.62-.34.93-.17.44-.32.89-.5 1.32-.13.34-.28.66-.42.99-.18.41-.35.83-.53 1.23-.16.34-.33.67-.49 1.01-.19.39-.37.79-.57 1.18-.17.34-.36.67-.54 1-.21.38-.41.77-.62 1.15-.19.33-.39.65-.59.98-.22.37-.44.75-.68 1.13-.2.32-.42.64-.63.96-.24.37-.47.74-.72 1.1-.54.78-1.09 1.54-1.67 2.3-.17.23-.34.44-.52.67-.42.53-.84 1.07-1.28 1.59-.24.29-.49.58-.73.87-.29.34-.59.67-.89 1.01-.27.3-.55.61-.83.9-.3.33-.62.66-.93.99-.3.31-.61.62-.91.92-.26.25-.51.51-.77.76-.34.32-.68.63-1.02.95-.26.24-.52.48-.79.72-.38.34-.77.68-1.15 1.01-.22.18-.43.37-.65.55-.48.4-.97.8-1.46 1.18-.14.11-.27.23-.41.33-.62.49-1.25.96-1.89 1.43-.18.13-.36.25-.54.38-.47.33-.94.67-1.42.99-.23.16-.46.31-.69.46-.44.29-.89.58-1.34.86-.24.15-.47.3-.71.45-.48.29-.97.58-1.46.86-.2.12-.4.24-.61.36-.69.39-1.38.77-2.08 1.14-.11.05-.22.11-.33.16-.6.32-1.21.62-1.83.92-.24.11-.49.23-.74.34a62.114 62.114 0 01-2.39 1.06c-.44.19-.88.37-1.32.54-.33.13-.66.26-.99.38-.41.16-.83.31-1.25.46-.42.15-.83.29-1.25.43-.4.14-.8.27-1.21.39-.42.13-.84.26-1.26.38-.37.11-.73.21-1.1.31-.66.18-1.32.34-1.99.5l-.89.21c-.95.21-1.89.4-2.84.56h-.03l-.02.01c-.75.12-1.5.23-2.25.33-.22.03-.45.05-.67.08-.57.07-1.13.12-1.69.17l-.68.06c-.76.06-1.52.11-2.28.13-.73.03-1.45.04-2.17.03h-.4c-.68-.01-1.36-.03-2.04-.07z" fill="url(#grd2)"/><g id="Group 2367"><path id="Path 1551" fill-rule="evenodd" d="M40.21 90.2c-27.05.94-44.28-18.46-38.4-43.24C7.68 22.17 34.48 1.23 61.53.29c27.06-.95 44.29 18.45 38.41 43.24-5.88 24.79-32.67 45.72-59.73 46.67zM57.8 16.01c-17.59.61-35.01 14.23-38.84 30.35-3.82 16.12 7.38 28.73 24.98 28.12 17.59-.62 35.02-14.23 38.84-30.35 3.83-16.12-7.38-28.74-24.98-28.12z" fill="url(#grd3)"/></g></g></g></g></g></g></svg>